<svg xmlns="http://www.w3.org/2000/svg" xmlns:xlink="http://www.w3.org/1999/xlink" xmlns:lucid="lucid" width="1219.41" height="1301"><g transform="translate(-441.0859701621439 160.5)" lucid:page-tab-id=".Q4MUjXso07N"><path d="M0-500h2000v2000H0z" fill="#fff"/><path d="M720 128a8 8 0 0 1 8-8h764a8 8 0 0 1 8 8v984a8 8 0 0 1-8 8H728a8 8 0 0 1-8-8z" stroke="#000" fill-opacity="0"/><use xlink:href="#a" transform="matrix(1,0,0,1,728,128) translate(329.7231481481482 17.95555555555555)"/><path d="M620.9 229.4l160.88 128.23M620.9 229.4l-2.75-2.2" stroke="#3a414a" fill="none"/><path d="M782.56 357.64l-.77.6-.32-.24.6-.75z" stroke="#3a414a" stroke-width=".05" fill="#3a414a"/><path d="M620.7 230.08l138.6 323.3M620.7 230.1l-1.38-3.23" stroke="#3a414a" fill="none"/><path d="M759.5 553.82v.4l.04.9-.68-1.58.66-.28z" stroke="#3a414a" stroke-width=".05" fill="#3a414a"/><path d="M920 400c0 33.14-35.82 60-80 60s-80-26.86-80-60 35.82-60 80-60 80 26.86 80 60z" stroke="#000" fill="#6db1ff"/><use xlink:href="#b" transform="matrix(1,0,0,1,784,364) translate(15.555555555555564 28.888888888888886)"/><use xlink:href="#c" transform="matrix(1,0,0,1,784,364) translate(-4.148148148148145 50.22222222222222)"/><path d="M1619.75 169.75c0 10.9-8.84 19.75-19.75 19.75-10.9 0-19.75-8.84-19.75-19.75 0-10.9 8.84-19.75 19.75-19.75 10.9 0 19.75 8.84 19.75 19.75z" stroke="#333" fill="#fff"/><path d="M1600 189.5v49.3a20.7 20.7 0 0 0 3.2 11.07L1640 308m-40-63.2l-40 63.2m0-98.75h80" stroke="#333" fill="none"/><path d="M1560 156a6 6 0 0 1 6-6h68a6 6 0 0 1 6 6v168a6 6 0 0 1-6 6h-68a6 6 0 0 1-6-6z" fill="none"/><use xlink:href="#d" transform="matrix(1,0,0,1,1480,308) translate(88.58024691358025 17.77777777777778)"/><path d="M639.75 169.75c0 10.9-8.84 19.75-19.75 19.75-10.9 0-19.75-8.84-19.75-19.75 0-10.9 8.84-19.75 19.75-19.75 10.9 0 19.75 8.84 19.75 19.75z" stroke="#333" fill="#fff"/><path d="M620 189.5v49.3a20.7 20.7 0 0 0 3.2 11.07L660 308m-40-63.2L580 308m0-98.75h80" stroke="#333" fill="none"/><path d="M580 156a6 6 0 0 1 6-6h68a6 6 0 0 1 6 6v168a6 6 0 0 1-6 6h-68a6 6 0 0 1-6-6z" fill="none"/><use xlink:href="#e" transform="matrix(1,0,0,1,500,308) translate(96.60493827160494 17.77777777777778)"/><path d="M461.6-124a16 16 0 0 1 16-16H704a16 16 0 0 1 16 16v101.6a16 16 0 0 1-16 16H477.6a16 16 0 0 1-16-16z" stroke="#4c535d" fill="#fff"/><path d="M507.8-79.78c0 1.23-1 2.22-2.2 2.22-1.24 0-2.24-1-2.24-2.22 0-1.22 1-2.22 2.23-2.22 1.2 0 2.2 1 2.2 2.22z" stroke="#333" fill="#fff"/><path d="M505.6-77.56v6.67c0 .62.12 1.14.42 1.68l4 7.22m-4.43-8l-4.46 8m0-13.33h8.9" stroke="#333" fill="none"/><path d="M501.14-81.1c0-.5.4-.9.9-.9h7.1c.5 0 .9.4.9.9v18.2c0 .5-.4.9-.9.9h-7.1c-.5 0-.9-.4-.9-.9z" fill="none"/><path d="M515.6-40c0 4.14-4.5 7.5-10 7.5-5.54 0-10-3.36-10-7.5 0-4.14 4.46-7.5 10-7.5 5.5 0 10 3.36 10 7.5z" stroke="#fff" fill="#4d9eff"/><use xlink:href="#f" transform="matrix(1,0,0,1,493.5859701621439,-116) translate(0 15.6)"/><use xlink:href="#g" transform="matrix(1,0,0,1,493.5859701621439,-116) translate(37.95 15.6)"/><use xlink:href="#h" transform="matrix(1,0,0,1,493.5859701621439,-116) translate(82.95 15.6)"/><use xlink:href="#i" transform="matrix(1,0,0,1,529.5859701621439,-84) translate(0 14.8)"/><use xlink:href="#j" transform="matrix(1,0,0,1,529.5859701621439,-52) translate(0 14.8)"/><use xlink:href="#k" transform="matrix(1,0,0,1,529.5859701621439,-52) translate(28.73888888888889 14.8)"/><path d="M920 553.83c0 33.14-35.82 60-80 60s-80-26.86-80-60 35.82-60 80-60 80 26.86 80 60z" stroke="#000" fill="#6db1ff"/><use xlink:href="#l" transform="matrix(1,0,0,1,784,517.8288334668003) translate(15.049999999999997 28.799999999999997)"/><use xlink:href="#m" transform="matrix(1,0,0,1,784,517.8288334668003) translate(13.049999999999997 50.4)"/><path d="M920 713.83c0 33.14-35.82 60-80 60s-80-26.86-80-60 35.82-60 80-60 80 26.86 80 60z" stroke="#000" fill="#6db1ff"/><use xlink:href="#n" transform="matrix(1,0,0,1,784,677.8288334668003) translate(19.574999999999996 28.799999999999997)"/><use xlink:href="#m" transform="matrix(1,0,0,1,784,677.8288334668003) translate(13.049999999999997 50.4)"/><path d="M920 1033.83c0 33.14-35.82 60-80 60s-80-26.86-80-60 35.82-60 80-60 80 26.86 80 60z" stroke="#000" fill="#6db1ff"/><use xlink:href="#o" transform="matrix(1,0,0,1,784,997.8288334668005) translate(41.5 18)"/><use xlink:href="#p" transform="matrix(1,0,0,1,784,997.8288334668005) translate(13.024999999999999 39.6)"/><use xlink:href="#q" transform="matrix(1,0,0,1,784,997.8288334668005) translate(21.5 61.2)"/><path d="M920 862.83c0 33.14-35.82 60-80 60s-80-26.86-80-60 35.82-60 80-60 80 26.86 80 60z" stroke="#000" fill="#6db1ff"/><use xlink:href="#r" transform="matrix(1,0,0,1,784,826.8288334668003) translate(10.049999999999997 28.799999999999997)"/><use xlink:href="#q" transform="matrix(1,0,0,1,784,826.8288334668003) translate(21.5 50.4)"/><path d="M1200 240c0 33.14-35.82 60-80 60s-80-26.86-80-60 35.82-60 80-60 80 26.86 80 60z" stroke="#000" fill="#6db1ff"/><path d="M1218 180c0 9.94-8.06 18-18 18s-18-8.06-18-18 8.06-18 18-18 18 8.06 18 18z" fill="#4d9eff"/><path d="M1202 186v-9h-6v4h2v5h-2v3h8v-3h-2zm-2.88-15h1.76c.62 0 1.12.5 1.12 1.13v1.75c0 .62-.5 1.12-1.13 1.12h-1.74c-.63 0-1.13-.5-1.13-1.13v-1.75c0-.62.5-1.12 1.13-1.12z" fill="#fff"/><use xlink:href="#r" transform="matrix(1,0,0,1,1064,204) translate(10.049999999999997 28.799999999999997)"/><use xlink:href="#s" transform="matrix(1,0,0,1,1064,204) translate(-0.9000000000000057 50.4)"/><path d="M1480 400c0 33.14-35.82 60-80 60s-80-26.86-80-60 35.82-60 80-60 80 26.86 80 60z" stroke="#000" fill="#6db1ff"/><path d="M1498 340c0 9.94-8.06 18-18 18s-18-8.06-18-18 8.06-18 18-18 18 8.06 18 18z" fill="#4d9eff"/><path d="M1482 346v-9h-6v4h2v5h-2v3h8v-3h-2zm-2.88-15h1.76c.62 0 1.12.5 1.12 1.13v1.75c0 .62-.5 1.12-1.13 1.12h-1.74c-.63 0-1.13-.5-1.13-1.13v-1.75c0-.62.5-1.12 1.13-1.12z" fill="#fff"/><use xlink:href="#t" transform="matrix(1,0,0,1,1344,364) translate(41.05 18)"/><use xlink:href="#u" transform="matrix(1,0,0,1,1344,364) translate(10.049999999999997 39.6)"/><use xlink:href="#v" transform="matrix(1,0,0,1,1344,364) translate(20.5 61.2)"/><path d="M1140 553.83c0 33.14-35.82 60-80 60s-80-26.86-80-60 35.82-60 80-60 80 26.86 80 60z" stroke="#000" fill="#6db1ff"/><use xlink:href="#w" transform="matrix(1,0,0,1,1004,517.8288334668003) translate(28.525 18)"/><use xlink:href="#u" transform="matrix(1,0,0,1,1004,517.8288334668003) translate(10.049999999999997 39.6)"/><use xlink:href="#v" transform="matrix(1,0,0,1,1004,517.8288334668003) translate(20.5 61.2)"/><path d="M1140 400c0 33.14-35.82 60-80 60s-80-26.86-80-60 35.82-60 80-60 80 26.86 80 60z" stroke="#000" fill="#6db1ff"/><use xlink:href="#w" transform="matrix(1,0,0,1,1004,364) translate(28.525 18)"/><use xlink:href="#x" transform="matrix(1,0,0,1,1004,364) translate(20.025 39.6)"/><use xlink:href="#v" transform="matrix(1,0,0,1,1004,364) translate(20.5 61.2)"/><path d="M1480 553.83c0 33.14-35.82 60-80 60s-80-26.86-80-60 35.82-60 80-60 80 26.86 80 60z" stroke="#000" fill="#6db1ff"/><use xlink:href="#l" transform="matrix(1,0,0,1,1344,517.8288334668003) translate(15.049999999999997 28.799999999999997)"/><use xlink:href="#y" transform="matrix(1,0,0,1,1344,517.8288334668003) translate(22 50.4)"/><path d="M1455.5 355.62l135.56-97.98" stroke="#333" fill="none"/><path d="M1455.8 356l-.27.2-.84-.57.54-.4z" stroke="#333" stroke-width=".05" fill="#333"/><path d="M1591.05 257.65l2.85-2.06M1599.03 240H1201M1599.02 240h3.5" stroke="#333" fill="none"/><path d="M1201 240.47h-.52l.02-.46V239.54h.5z" stroke="#333" stroke-width=".05" fill="#333"/><path d="M660.5 240H1039" stroke="#333" fill="none"/><path d="M660.5 240.47H657v-.94h3.5zM1039.5 240V240.46h-.5v-.94h.52z" stroke="#333" stroke-width=".05" fill="#333"/><path d="M620.6 229.42l138.8 632.92M620.6 229.43l-.74-3.43" stroke="#333" fill="none"/><path d="M759.5 862.82v.4l.1 2.24-.67-3.03.6-.13z" stroke="#333" stroke-width=".05" fill="#333"/><path d="M620.64 229.4l138.72 483.95M620.64 229.43l-.97-3.38" stroke="#333" fill="none"/><path d="M759.5 713.82v.4l.06 1.55-.66-2.3.62-.18z" stroke="#333" stroke-width=".05" fill="#333"/><path d="M620.6 229.42l138.8 803.92M620.6 229.44l-.6-3.47" stroke="#333" fill="none"/><path d="M759.5 1033.82v.4l.1 2.63-.06.02-.6-3.47.58-.1z" stroke="#333" stroke-width=".05" fill="#333"/><path d="M1600.88 247.24l-120.2 306.12M1600.87 247.25l1.3-3.27" stroke="#333" fill="none"/><path d="M1481.13 553.52l-.67 1.72.04-1.4V553.27zM1312.63 400.48h-5.2v-.96h5.2zm-155.57 0h-5.66v-.96h5.66zm-10.86 0h-5.2v-.96h5.2z" stroke="#333" stroke-width=".05" fill="#333"/><path d="M1318.52 400l-12.9 7.64v-15.28z" fill="#333"/><path d="M1319.45 400l-14.32 8.47v-16.94zm-13.37 6.8l11.5-6.8-11.5-6.8z" stroke="#333" stroke-width=".05" fill="#333"/><path d="M1141 400.48h-.52l.02-.47v-.4l.5-.08z" fill="#333"/><path stroke="#333" stroke-width=".05" fill="#333"/><g><use xlink:href="#z" transform="matrix(1,0,0,1,1157.0555555555557,386.53333333333336) translate(0.0049999999999954525 17.955555555555552)"/><use xlink:href="#A" transform="matrix(1,0,0,1,1157.0555555555557,386.53333333333336) translate(32.42475308641974 17.955555555555552)"/><use xlink:href="#B" transform="matrix(1,0,0,1,1157.0555555555557,386.53333333333336) translate(119.70870370370366 17.955555555555552)"/></g><path d="M1145.05 550.66l-3.86 3.2-.62-.72 3.86-3.2zm11.57-9.64l-7.72 6.43-.6-.74 7.7-6.4zm11.57-9.65l-7.73 6.43-.6-.73 7.7-6.43zm11.56-9.64l-7.7 6.43-.62-.73 7.7-6.43zm11.57-9.64l-7.7 6.4-.62-.72 7.72-6.42zm11.57-9.66l-7.7 6.43-.62-.73 7.72-6.43zm11.57-9.64l-7.7 6.43-.62-.73 7.07-5.9h1.1zm34.72-28.93l-2.18 1.8h-1.48l3.04-2.53zm11.56-9.64l-7.7 6.42-.62-.72 7.7-6.43zm11.57-9.65l-7.7 6.43-.62-.72 7.72-6.43zm11.57-9.64l-7.7 6.43-.62-.73 7.72-6.43zm11.57-9.64l-7.7 6.43-.62-.74 7.72-6.43zm11.58-9.65l-7.72 6.43-.6-.73 7.7-6.43zm7.7-6.43l-3.85 3.22-.6-.73 3.85-3.2z" stroke="#333" stroke-width=".05" fill="#333"/><path d="M1313.95 419.22l-9.77-11.73 14.8-2.4z" fill="#333"/><path d="M1314.12 420.16l-10.84-13 16.42-2.67zm-9.05-12.34l8.7 10.45 4.5-12.58z" stroke="#333" stroke-width=".05" fill="#333"/><path d="M1141.2 553.87l-.72.6.02-.63v-.62l.1-.08z" fill="#333"/><path stroke="#333" stroke-width=".05" fill="#333"/><g><use xlink:href="#z" transform="matrix(1,0,0,1,1157.17400751365,465.6771243602967) translate(0.0049999999999954525 17.955555555555552)"/><use xlink:href="#A" transform="matrix(1,0,0,1,1157.17400751365,465.6771243602967) translate(32.42475308641974 17.955555555555552)"/><use xlink:href="#B" transform="matrix(1,0,0,1,1157.17400751365,465.6771243602967) translate(119.70870370370366 17.955555555555552)"/></g><defs><path d="M30-248c87 1 191-15 191 75 0 78-77 80-158 76V0H30v-248zm33 125c57 0 124 11 124-50 0-59-68-47-124-48v98" id="C"/><path d="M100-194c62-1 85 37 85 99 1 63-27 99-86 99S16-35 15-95c0-66 28-99 85-99zM99-20c44 1 53-31 53-75 0-43-8-75-51-75s-53 32-53 75 10 74 51 75" id="D"/><path d="M24 0v-261h32V0H24" id="E"/><path d="M24-231v-30h32v30H24zM24 0v-190h32V0H24" id="F"/><path d="M96-169c-40 0-48 33-48 73s9 75 48 75c24 0 41-14 43-38l32 2c-6 37-31 61-74 61-59 0-76-41-82-99-10-93 101-131 147-64 4 7 5 14 7 22l-32 3c-4-21-16-35-41-35" id="G"/><path d="M179-190L93 31C79 59 56 82 12 73V49c39 6 53-20 64-50L1-190h34L92-34l54-156h33" id="H"/><path d="M185-189c-5-48-123-54-124 2 14 75 158 14 163 119 3 78-121 87-175 55-17-10-28-26-33-46l33-7c5 56 141 63 141-1 0-78-155-14-162-118-5-82 145-84 179-34 5 7 8 16 11 25" id="I"/><path d="M177-190C167-65 218 103 67 71c-23-6-38-20-44-43l32-5c15 47 100 32 89-28v-30C133-14 115 1 83 1 29 1 15-40 15-95c0-56 16-97 71-98 29-1 48 16 59 35 1-10 0-23 2-32h30zM94-22c36 0 50-32 50-73 0-42-14-75-50-75-39 0-46 34-46 75s6 73 46 73" id="J"/><path d="M117-194c89-4 53 116 60 194h-32v-121c0-31-8-49-39-48C34-167 62-67 57 0H25l-1-190h30c1 10-1 24 2 32 11-22 29-35 61-36" id="K"/><g id="a"><use transform="matrix(0.06234567901234565,0,0,0.06234567901234565,0,0)" xlink:href="#C"/><use transform="matrix(0.06234567901234565,0,0,0.06234567901234565,14.962962962962957,0)" xlink:href="#D"/><use transform="matrix(0.06234567901234565,0,0,0.06234567901234565,27.432098765432087,0)" xlink:href="#E"/><use transform="matrix(0.06234567901234565,0,0,0.06234567901234565,32.35740740740739,0)" xlink:href="#F"/><use transform="matrix(0.06234567901234565,0,0,0.06234567901234565,37.2827160493827,0)" xlink:href="#G"/><use transform="matrix(0.06234567901234565,0,0,0.06234567901234565,48.504938271604914,0)" xlink:href="#H"/><use transform="matrix(0.06234567901234565,0,0,0.06234567901234565,59.72716049382713,0)" xlink:href="#I"/><use transform="matrix(0.06234567901234565,0,0,0.06234567901234565,74.69012345679009,0)" xlink:href="#F"/><use transform="matrix(0.06234567901234565,0,0,0.06234567901234565,79.6154320987654,0)" xlink:href="#J"/><use transform="matrix(0.06234567901234565,0,0,0.06234567901234565,92.08456790123452,0)" xlink:href="#K"/></g><path d="M30-248c118-7 216 8 213 122C240-48 200 0 122 0H30v-248zM63-27c89 8 146-16 146-99s-60-101-146-95v194" id="L"/><path d="M143 0L79-87 56-68V0H24v-261h32v163l83-92h37l-77 82L181 0h-38" id="M"/><path d="M84 4C-5 8 30-112 23-190h32v120c0 31 7 50 39 49 72-2 45-101 50-169h31l1 190h-30c-1-10 1-25-2-33-11 22-28 36-60 37" id="N"/><path d="M210-169c-67 3-38 105-44 169h-31v-121c0-29-5-50-35-48C34-165 62-65 56 0H25l-1-190h30c1 10-1 24 2 32 10-44 99-50 107 0 11-21 27-35 58-36 85-2 47 119 55 194h-31v-121c0-29-5-49-35-48" id="O"/><path d="M100-194c63 0 86 42 84 106H49c0 40 14 67 53 68 26 1 43-12 49-29l28 8c-11 28-37 45-77 45C44 4 14-33 15-96c1-61 26-98 85-98zm52 81c6-60-76-77-97-28-3 7-6 17-6 28h103" id="P"/><path d="M59-47c-2 24 18 29 38 22v24C64 9 27 4 27-40v-127H5v-23h24l9-43h21v43h35v23H59v120" id="Q"/><g id="b"><use transform="matrix(0.049382716049382706,0,0,0.049382716049382706,0,0)" xlink:href="#L"/><use transform="matrix(0.049382716049382706,0,0,0.049382716049382706,12.790123456790122,0)" xlink:href="#D"/><use transform="matrix(0.049382716049382706,0,0,0.049382716049382706,22.666666666666664,0)" xlink:href="#M"/><use transform="matrix(0.049382716049382706,0,0,0.049382716049382706,31.55555555555555,0)" xlink:href="#N"/><use transform="matrix(0.049382716049382706,0,0,0.049382716049382706,41.43209876543209,0)" xlink:href="#O"/><use transform="matrix(0.049382716049382706,0,0,0.049382716049382706,56.19753086419752,0)" xlink:href="#P"/><use transform="matrix(0.049382716049382706,0,0,0.049382716049382706,66.07407407407406,0)" xlink:href="#K"/><use transform="matrix(0.049382716049382706,0,0,0.049382716049382706,75.9506172839506,0)" xlink:href="#Q"/></g><path d="M232-93c-1 65-40 97-104 97C67 4 28-28 28-90v-158h33c8 89-33 224 67 224 102 0 64-133 71-224h33v155" id="R"/><path d="M114-163C36-179 61-72 57 0H25l-1-190h30c1 12-1 29 2 39 6-27 23-49 58-41v29" id="S"/><path d="M135-143c-3-34-86-38-87 0 15 53 115 12 119 90S17 21 10-45l28-5c4 36 97 45 98 0-10-56-113-15-118-90-4-57 82-63 122-42 12 7 21 19 24 35" id="T"/><path d="M106-169C34-169 62-67 57 0H25v-261h32l-1 103c12-21 28-36 61-36 89 0 53 116 60 194h-32v-121c2-32-8-49-39-48" id="U"/><path d="M115-194c53 0 69 39 70 98 0 66-23 100-70 100C84 3 66-7 56-30L54 0H23l1-261h32v101c10-23 28-34 59-34zm-8 174c40 0 45-34 45-75 0-40-5-75-45-74-42 0-51 32-51 76 0 43 10 73 51 73" id="V"/><g id="c"><use transform="matrix(0.049382716049382706,0,0,0.049382716049382706,0,0)" xlink:href="#R"/><use transform="matrix(0.049382716049382706,0,0,0.049382716049382706,12.790123456790122,0)" xlink:href="#K"/><use transform="matrix(0.049382716049382706,0,0,0.049382716049382706,22.666666666666664,0)" xlink:href="#Q"/><use transform="matrix(0.049382716049382706,0,0,0.049382716049382706,27.60493827160494,0)" xlink:href="#P"/><use transform="matrix(0.049382716049382706,0,0,0.049382716049382706,37.48148148148148,0)" xlink:href="#S"/><use transform="matrix(0.049382716049382706,0,0,0.049382716049382706,43.358024691358025,0)" xlink:href="#T"/><use transform="matrix(0.049382716049382706,0,0,0.049382716049382706,52.24691358024691,0)" xlink:href="#G"/><use transform="matrix(0.049382716049382706,0,0,0.049382716049382706,61.135802469135804,0)" xlink:href="#U"/><use transform="matrix(0.049382716049382706,0,0,0.049382716049382706,71.01234567901234,0)" xlink:href="#S"/><use transform="matrix(0.049382716049382706,0,0,0.049382716049382706,76.88888888888889,0)" xlink:href="#P"/><use transform="matrix(0.049382716049382706,0,0,0.049382716049382706,86.76543209876543,0)" xlink:href="#F"/><use transform="matrix(0.049382716049382706,0,0,0.049382716049382706,90.66666666666666,0)" xlink:href="#V"/><use transform="matrix(0.049382716049382706,0,0,0.049382716049382706,100.5432098765432,0)" xlink:href="#P"/><use transform="matrix(0.049382716049382706,0,0,0.049382716049382706,110.41975308641976,0)" xlink:href="#K"/></g><path d="M205 0l-28-72H64L36 0H1l101-248h38L239 0h-34zm-38-99l-47-123c-12 45-31 82-46 123h93" id="W"/><path d="M85-194c31 0 48 13 60 33l-1-100h32l1 261h-30c-2-10 0-23-3-31C134-8 116 4 85 4 32 4 16-35 15-94c0-66 23-100 70-100zm9 24c-40 0-46 34-46 75 0 40 6 74 45 74 42 0 51-32 51-76 0-42-9-74-50-73" id="X"/><g id="d"><use transform="matrix(0.06172839506172839,0,0,0.06172839506172839,0,0)" xlink:href="#W"/><use transform="matrix(0.06172839506172839,0,0,0.06172839506172839,14.814814814814813,0)" xlink:href="#X"/><use transform="matrix(0.06172839506172839,0,0,0.06172839506172839,27.160493827160494,0)" xlink:href="#O"/><use transform="matrix(0.06172839506172839,0,0,0.06172839506172839,45.61728395061728,0)" xlink:href="#F"/><use transform="matrix(0.06172839506172839,0,0,0.06172839506172839,50.49382716049382,0)" xlink:href="#K"/></g><g id="e"><use transform="matrix(0.06172839506172839,0,0,0.06172839506172839,0,0)" xlink:href="#R"/><use transform="matrix(0.06172839506172839,0,0,0.06172839506172839,15.987654320987653,0)" xlink:href="#T"/><use transform="matrix(0.06172839506172839,0,0,0.06172839506172839,27.098765432098766,0)" xlink:href="#P"/><use transform="matrix(0.06172839506172839,0,0,0.06172839506172839,39.44444444444444,0)" xlink:href="#S"/></g><path d="M238-95c0 69-44 99-111 99C63 4 22-25 22-93v-155h51v151c-1 38 19 59 55 60 90 1 49-130 58-211h52v153" id="Y"/><path d="M137-138c1-29-70-34-71-4 15 46 118 7 119 86 1 83-164 76-172 9l43-7c4 19 20 25 44 25 33 8 57-30 24-41C81-84 22-81 20-136c-2-80 154-74 161-7" id="Z"/><path d="M185-48c-13 30-37 53-82 52C43 2 14-33 14-96s30-98 90-98c62 0 83 45 84 108H66c0 31 8 55 39 56 18 0 30-7 34-22zm-45-69c5-46-57-63-70-21-2 6-4 13-4 21h74" id="aa"/><g id="f"><use transform="matrix(0.05,0,0,0.05,0,0)" xlink:href="#Y"/><use transform="matrix(0.05,0,0,0.05,12.950000000000001,0)" xlink:href="#Z"/><use transform="matrix(0.05,0,0,0.05,22.950000000000003,0)" xlink:href="#aa"/></g><path d="M190-63c-7 42-38 67-86 67-59 0-84-38-90-98-12-110 154-137 174-36l-49 2c-2-19-15-32-35-32-30 0-35 28-38 64-6 74 65 87 74 30" id="ab"/><path d="M133-34C117-15 103 5 69 4 32 3 11-16 11-54c-1-60 55-63 116-61 1-26-3-47-28-47-18 1-26 9-28 27l-52-2c7-38 36-58 82-57s74 22 75 68l1 82c-1 14 12 18 25 15v27c-30 8-71 5-69-32zm-48 3c29 0 43-24 42-57-32 0-66-3-65 30 0 17 8 27 23 27" id="ac"/><g id="g"><use transform="matrix(0.05,0,0,0.05,0,0)" xlink:href="#ab"/><use transform="matrix(0.05,0,0,0.05,10,0)" xlink:href="#ac"/><use transform="matrix(0.05,0,0,0.05,20,0)" xlink:href="#Z"/><use transform="matrix(0.05,0,0,0.05,30,0)" xlink:href="#aa"/></g><path d="M114-157C55-157 80-60 75 0H25v-261h50l-1 109c12-26 28-41 61-42 86-1 58 113 63 194h-50c-7-57 23-157-34-157" id="ad"/><path d="M135-194c53 0 70 44 70 98 0 56-19 98-73 100-31 1-45-17-59-34 3 33 2 69 2 105H25l-1-265h48c2 10 0 23 3 31 11-24 29-35 60-35zM114-30c33 0 39-31 40-66 0-38-9-64-40-64-56 0-55 130 0 130" id="ae"/><g id="h"><use transform="matrix(0.05,0,0,0.05,0,0)" xlink:href="#Z"/><use transform="matrix(0.05,0,0,0.05,10,0)" xlink:href="#ad"/><use transform="matrix(0.05,0,0,0.05,20.950000000000003,0)" xlink:href="#ac"/><use transform="matrix(0.05,0,0,0.05,30.950000000000003,0)" xlink:href="#ae"/><use transform="matrix(0.05,0,0,0.05,41.900000000000006,0)" xlink:href="#aa"/><use transform="matrix(0.05,0,0,0.05,51.900000000000006,0)" xlink:href="#Z"/></g><g id="i"><use transform="matrix(0.03888888888888889,0,0,0.03888888888888889,0,0)" xlink:href="#W"/><use transform="matrix(0.03888888888888889,0,0,0.03888888888888889,9.333333333333334,0)" xlink:href="#G"/><use transform="matrix(0.03888888888888889,0,0,0.03888888888888889,16.333333333333336,0)" xlink:href="#Q"/><use transform="matrix(0.03888888888888889,0,0,0.03888888888888889,20.22222222222223,0)" xlink:href="#D"/><use transform="matrix(0.03888888888888889,0,0,0.03888888888888889,28.000000000000004,0)" xlink:href="#S"/></g><g id="j"><use transform="matrix(0.03888888888888889,0,0,0.03888888888888889,0,0)" xlink:href="#R"/><use transform="matrix(0.03888888888888889,0,0,0.03888888888888889,10.072222222222223,0)" xlink:href="#T"/><use transform="matrix(0.03888888888888889,0,0,0.03888888888888889,17.072222222222223,0)" xlink:href="#P"/></g><path d="M212-179c-10-28-35-45-73-45-59 0-87 40-87 99 0 60 29 101 89 101 43 0 62-24 78-52l27 14C228-24 195 4 139 4 59 4 22-46 18-125c-6-104 99-153 187-111 19 9 31 26 39 46" id="af"/><path d="M141-36C126-15 110 5 73 4 37 3 15-17 15-53c-1-64 63-63 125-63 3-35-9-54-41-54-24 1-41 7-42 31l-33-3c5-37 33-52 76-52 45 0 72 20 72 64v82c-1 20 7 32 28 27v20c-31 9-61-2-59-35zM48-53c0 20 12 33 32 33 41-3 63-29 60-74-43 2-92-5-92 41" id="ag"/><g id="k"><use transform="matrix(0.03888888888888889,0,0,0.03888888888888889,0,0)" xlink:href="#af"/><use transform="matrix(0.03888888888888889,0,0,0.03888888888888889,10.072222222222223,0)" xlink:href="#ag"/><use transform="matrix(0.03888888888888889,0,0,0.03888888888888889,17.85,0)" xlink:href="#T"/><use transform="matrix(0.03888888888888889,0,0,0.03888888888888889,24.85,0)" xlink:href="#P"/></g><g id="l"><use transform="matrix(0.05,0,0,0.05,0,0)" xlink:href="#L"/><use transform="matrix(0.05,0,0,0.05,12.950000000000001,0)" xlink:href="#D"/><use transform="matrix(0.05,0,0,0.05,22.950000000000003,0)" xlink:href="#M"/><use transform="matrix(0.05,0,0,0.05,31.950000000000003,0)" xlink:href="#N"/><use transform="matrix(0.05,0,0,0.05,41.95,0)" xlink:href="#O"/><use transform="matrix(0.05,0,0,0.05,56.900000000000006,0)" xlink:href="#P"/><use transform="matrix(0.05,0,0,0.05,66.9,0)" xlink:href="#K"/><use transform="matrix(0.05,0,0,0.05,76.9,0)" xlink:href="#Q"/></g><path d="M197 0v-115H63V0H30v-248h33v105h134v-105h34V0h-34" id="ah"/><g id="m"><use transform="matrix(0.05,0,0,0.05,0,0)" xlink:href="#ah"/><use transform="matrix(0.05,0,0,0.05,12.950000000000001,0)" xlink:href="#D"/><use transform="matrix(0.05,0,0,0.05,22.950000000000003,0)" xlink:href="#G"/><use transform="matrix(0.05,0,0,0.05,31.950000000000003,0)" xlink:href="#U"/><use transform="matrix(0.05,0,0,0.05,41.95,0)" xlink:href="#E"/><use transform="matrix(0.05,0,0,0.05,45.900000000000006,0)" xlink:href="#ag"/><use transform="matrix(0.05,0,0,0.05,55.900000000000006,0)" xlink:href="#X"/><use transform="matrix(0.05,0,0,0.05,65.9,0)" xlink:href="#P"/><use transform="matrix(0.05,0,0,0.05,75.9,0)" xlink:href="#K"/></g><path d="M127-220V0H93v-220H8v-28h204v28h-85" id="ai"/><path d="M115-194c55 1 70 41 70 98S169 2 115 4C84 4 66-9 55-30l1 105H24l-1-265h31l2 30c10-21 28-34 59-34zm-8 174c40 0 45-34 45-75s-6-73-45-74c-42 0-51 32-51 76 0 43 10 73 51 73" id="aj"/><g id="n"><use transform="matrix(0.05,0,0,0.05,0,0)" xlink:href="#ai"/><use transform="matrix(0.05,0,0,0.05,8.950000000000001,0)" xlink:href="#P"/><use transform="matrix(0.05,0,0,0.05,18.950000000000003,0)" xlink:href="#O"/><use transform="matrix(0.05,0,0,0.05,33.900000000000006,0)" xlink:href="#aj"/><use transform="matrix(0.05,0,0,0.05,43.900000000000006,0)" xlink:href="#E"/><use transform="matrix(0.05,0,0,0.05,47.85000000000001,0)" xlink:href="#ag"/><use transform="matrix(0.05,0,0,0.05,57.85,0)" xlink:href="#Q"/><use transform="matrix(0.05,0,0,0.05,62.85,0)" xlink:href="#P"/></g><path d="M33 0v-248h34V0H33" id="ak"/><g id="o"><use transform="matrix(0.05,0,0,0.05,0,0)" xlink:href="#W"/><use transform="matrix(0.05,0,0,0.05,12,0)" xlink:href="#C"/><use transform="matrix(0.05,0,0,0.05,24,0)" xlink:href="#ak"/></g><g id="p"><use transform="matrix(0.05,0,0,0.05,0,0)" xlink:href="#W"/><use transform="matrix(0.05,0,0,0.05,12,0)" xlink:href="#K"/><use transform="matrix(0.05,0,0,0.05,22,0)" xlink:href="#V"/><use transform="matrix(0.05,0,0,0.05,32,0)" xlink:href="#F"/><use transform="matrix(0.05,0,0,0.05,35.95,0)" xlink:href="#K"/><use transform="matrix(0.05,0,0,0.05,45.95,0)" xlink:href="#X"/><use transform="matrix(0.05,0,0,0.05,55.95,0)" xlink:href="#N"/><use transform="matrix(0.05,0,0,0.05,65.95,0)" xlink:href="#K"/><use transform="matrix(0.05,0,0,0.05,75.95,0)" xlink:href="#J"/></g><g id="q"><use transform="matrix(0.05,0,0,0.05,0,0)" xlink:href="#ag"/><use transform="matrix(0.05,0,0,0.05,10,0)" xlink:href="#K"/><use transform="matrix(0.05,0,0,0.05,20,0)" xlink:href="#T"/><use transform="matrix(0.05,0,0,0.05,29,0)" xlink:href="#P"/><use transform="matrix(0.05,0,0,0.05,39,0)" xlink:href="#U"/><use transform="matrix(0.05,0,0,0.05,49,0)" xlink:href="#P"/><use transform="matrix(0.05,0,0,0.05,59,0)" xlink:href="#K"/></g><g id="r"><use transform="matrix(0.05,0,0,0.05,0,0)" xlink:href="#L"/><use transform="matrix(0.05,0,0,0.05,12.950000000000001,0)" xlink:href="#D"/><use transform="matrix(0.05,0,0,0.05,22.950000000000003,0)" xlink:href="#M"/><use transform="matrix(0.05,0,0,0.05,31.950000000000003,0)" xlink:href="#N"/><use transform="matrix(0.05,0,0,0.05,41.95,0)" xlink:href="#O"/><use transform="matrix(0.05,0,0,0.05,56.900000000000006,0)" xlink:href="#P"/><use transform="matrix(0.05,0,0,0.05,66.9,0)" xlink:href="#K"/><use transform="matrix(0.05,0,0,0.05,76.9,0)" xlink:href="#Q"/><use transform="matrix(0.05,0,0,0.05,81.9,0)" xlink:href="#P"/></g><g id="s"><use transform="matrix(0.05,0,0,0.05,0,0)" xlink:href="#ah"/><use transform="matrix(0.05,0,0,0.05,12.950000000000001,0)" xlink:href="#P"/><use transform="matrix(0.05,0,0,0.05,22.950000000000003,0)" xlink:href="#S"/><use transform="matrix(0.05,0,0,0.05,28.900000000000002,0)" xlink:href="#N"/><use transform="matrix(0.05,0,0,0.05,38.900000000000006,0)" xlink:href="#K"/><use transform="matrix(0.05,0,0,0.05,48.900000000000006,0)" xlink:href="#Q"/><use transform="matrix(0.05,0,0,0.05,53.900000000000006,0)" xlink:href="#P"/><use transform="matrix(0.05,0,0,0.05,63.900000000000006,0)" xlink:href="#S"/><use transform="matrix(0.05,0,0,0.05,69.85000000000001,0)" xlink:href="#E"/><use transform="matrix(0.05,0,0,0.05,73.80000000000001,0)" xlink:href="#ag"/><use transform="matrix(0.05,0,0,0.05,83.80000000000001,0)" xlink:href="#X"/><use transform="matrix(0.05,0,0,0.05,93.80000000000001,0)" xlink:href="#P"/><use transform="matrix(0.05,0,0,0.05,103.80000000000001,0)" xlink:href="#K"/></g><g id="t"><use transform="matrix(0.05,0,0,0.05,0,0)" xlink:href="#W"/><use transform="matrix(0.05,0,0,0.05,12,0)" xlink:href="#E"/><use transform="matrix(0.05,0,0,0.05,15.949999999999998,0)" xlink:href="#E"/><use transform="matrix(0.05,0,0,0.05,19.9,0)" xlink:href="#P"/></g><g id="u"><use transform="matrix(0.05,0,0,0.05,0,0)" xlink:href="#L"/><use transform="matrix(0.05,0,0,0.05,12.950000000000001,0)" xlink:href="#D"/><use transform="matrix(0.05,0,0,0.05,22.950000000000003,0)" xlink:href="#M"/><use transform="matrix(0.05,0,0,0.05,31.950000000000003,0)" xlink:href="#N"/><use transform="matrix(0.05,0,0,0.05,41.95,0)" xlink:href="#O"/><use transform="matrix(0.05,0,0,0.05,56.900000000000006,0)" xlink:href="#P"/><use transform="matrix(0.05,0,0,0.05,66.9,0)" xlink:href="#K"/><use transform="matrix(0.05,0,0,0.05,76.9,0)" xlink:href="#Q"/><use transform="matrix(0.05,0,0,0.05,81.9,0)" xlink:href="#P"/></g><g id="v"><use transform="matrix(0.05,0,0,0.05,0,0)" xlink:href="#W"/><use transform="matrix(0.05,0,0,0.05,12,0)" xlink:href="#K"/><use transform="matrix(0.05,0,0,0.05,22,0)" xlink:href="#T"/><use transform="matrix(0.05,0,0,0.05,31,0)" xlink:href="#P"/><use transform="matrix(0.05,0,0,0.05,41,0)" xlink:href="#U"/><use transform="matrix(0.05,0,0,0.05,51,0)" xlink:href="#P"/><use transform="matrix(0.05,0,0,0.05,61,0)" xlink:href="#K"/></g><path d="M9 0v-24l116-142H16v-24h144v24L44-24h123V0H9" id="al"/><g id="w"><use transform="matrix(0.05,0,0,0.05,0,0)" xlink:href="#W"/><use transform="matrix(0.05,0,0,0.05,12,0)" xlink:href="#K"/><use transform="matrix(0.05,0,0,0.05,22,0)" xlink:href="#al"/><use transform="matrix(0.05,0,0,0.05,31,0)" xlink:href="#ag"/><use transform="matrix(0.05,0,0,0.05,41,0)" xlink:href="#U"/><use transform="matrix(0.05,0,0,0.05,51,0)" xlink:href="#E"/></g><path d="M160-131c35 5 61 23 61 61C221 17 115-2 30 0v-248c76 3 177-17 177 60 0 33-19 50-47 57zm-97-11c50-1 110 9 110-42 0-47-63-36-110-37v79zm0 115c55-2 124 14 124-45 0-56-70-42-124-44v89" id="am"/><g id="x"><use transform="matrix(0.05,0,0,0.05,0,0)" xlink:href="#am"/><use transform="matrix(0.05,0,0,0.05,12,0)" xlink:href="#P"/><use transform="matrix(0.05,0,0,0.05,22,0)" xlink:href="#K"/><use transform="matrix(0.05,0,0,0.05,32,0)" xlink:href="#N"/><use transform="matrix(0.05,0,0,0.05,42,0)" xlink:href="#Q"/><use transform="matrix(0.05,0,0,0.05,47,0)" xlink:href="#al"/><use transform="matrix(0.05,0,0,0.05,56,0)" xlink:href="#P"/><use transform="matrix(0.05,0,0,0.05,66,0)" xlink:href="#S"/></g><path d="M30 0v-248h33v221h125V0H30" id="an"/><path d="M100-194c62-1 85 37 85 99 1 63-27 99-86 99S16-35 15-95c0-66 28-99 85-99zM99-20c44 1 53-31 53-75 0-43-8-75-51-75s-53 32-53 75 10 74 51 75zm22-194v-33h29v33h-29zm-69 0v-33h29v33H52" id="ao"/><g id="y"><use transform="matrix(0.05,0,0,0.05,0,0)" xlink:href="#an"/><use transform="matrix(0.05,0,0,0.05,10,0)" xlink:href="#ao"/><use transform="matrix(0.05,0,0,0.05,20,0)" xlink:href="#T"/><use transform="matrix(0.05,0,0,0.05,29,0)" xlink:href="#G"/><use transform="matrix(0.05,0,0,0.05,38,0)" xlink:href="#U"/><use transform="matrix(0.05,0,0,0.05,48,0)" xlink:href="#P"/><use transform="matrix(0.05,0,0,0.05,58,0)" xlink:href="#K"/></g><path d="M18-100v-36l175-74v27L42-118l151 64v27" id="ap"/><g id="z"><use transform="matrix(0.06234567901234567,0,0,0.06234567901234567,0,0)" xlink:href="#ap"/><use transform="matrix(0.06234567901234567,0,0,0.06234567901234567,13.09259259259259,0)" xlink:href="#ap"/></g><path d="M30 0v-248h187v28H63v79h144v27H63v87h162V0H30" id="aq"/><path d="M141 0L90-78 38 0H4l68-98-65-92h35l48 74 47-74h35l-64 92 68 98h-35" id="ar"/><g id="A"><use transform="matrix(0.06234567901234567,0,0,0.06234567901234567,0,0)" xlink:href="#aq"/><use transform="matrix(0.06234567901234567,0,0,0.06234567901234567,14.96296296296296,0)" xlink:href="#ar"/><use transform="matrix(0.06234567901234567,0,0,0.06234567901234567,26.18518518518518,0)" xlink:href="#Q"/><use transform="matrix(0.06234567901234567,0,0,0.06234567901234567,32.419753086419746,0)" xlink:href="#P"/><use transform="matrix(0.06234567901234567,0,0,0.06234567901234567,44.88888888888888,0)" xlink:href="#K"/><use transform="matrix(0.06234567901234567,0,0,0.06234567901234567,57.35802469135801,0)" xlink:href="#X"/><use transform="matrix(0.06234567901234567,0,0,0.06234567901234567,69.82716049382714,0)" xlink:href="#T"/></g><path d="M18-27v-27l151-64-151-65v-27l175 74v36" id="as"/><g id="B"><use transform="matrix(0.06234567901234567,0,0,0.06234567901234567,0,0)" xlink:href="#as"/><use transform="matrix(0.06234567901234567,0,0,0.06234567901234567,13.09259259259259,0)" xlink:href="#as"/></g></defs></g></svg>