<svg xmlns="http://www.w3.org/2000/svg" xmlns:xlink="http://www.w3.org/1999/xlink" xmlns:lucid="lucid" width="1258.47" height="913.89"><g transform="translate(-299.5 860.5)" lucid:page-tab-id="0_0"><path d="M0-1000h2000V500H0z" fill="#fff"/><path d="M760-415.1a8 8 0 0 1 8-8h304.74a8 8 0 0 1 8 8v440a8 8 0 0 1-8 8H768a8 8 0 0 1-8-8z" fill="#fff"/><path d="M760-383.1v-32a8 8 0 0 1 8-8h304.74a8 8 0 0 1 8 8v32" fill="#dedeff"/><path d="M760-415.1a8 8 0 0 1 8-8h304.74a8 8 0 0 1 8 8v440a8 8 0 0 1-8 8H768a8 8 0 0 1-8-8zM760-383.1h320.74M800.36-383.1v416M931.16-383.1v416" stroke="#3a414a" fill="none"/><use xlink:href="#a" transform="matrix(1,0,0,1,770,-423.10879664719397) translate(0 23.6)"/><use xlink:href="#b" transform="matrix(1,0,0,1,765,-380.60879664719397) translate(0 17.1)"/><use xlink:href="#c" transform="matrix(1,0,0,1,805.3627085449143,-380.60879664719397) translate(0 17.1)"/><use xlink:href="#d" transform="matrix(1,0,0,1,936.1637237545876,-380.60879664719397) translate(0 17.1)"/><use xlink:href="#e" transform="matrix(1,0,0,1,765,-348.60879664719397) translate(0 17.1)"/><use xlink:href="#f" transform="matrix(1,0,0,1,805.3627085449143,-348.60879664719397) translate(0 17.1)"/><use xlink:href="#d" transform="matrix(1,0,0,1,936.1637237545876,-348.60879664719397) translate(0 17.1)"/><use xlink:href="#e" transform="matrix(1,0,0,1,765,-316.60879664719397) translate(0 17.1)"/><use xlink:href="#g" transform="matrix(1,0,0,1,805.3627085449143,-316.60879664719397) translate(0 17.1)"/><use xlink:href="#h" transform="matrix(1,0,0,1,936.1637237545876,-316.60879664719397) translate(0 17.1)"/><use xlink:href="#i" transform="matrix(1,0,0,1,805.3627085449143,-284.60879664719397) translate(0 17.1)"/><use xlink:href="#d" transform="matrix(1,0,0,1,936.1637237545876,-284.60879664719397) translate(0 17.1)"/><use xlink:href="#j" transform="matrix(1,0,0,1,805.3627085449143,-252.60879664719397) translate(0 17.1)"/><use xlink:href="#d" transform="matrix(1,0,0,1,936.1637237545876,-252.60879664719397) translate(0 17.1)"/><use xlink:href="#k" transform="matrix(1,0,0,1,805.3627085449143,-220.60879664719397) translate(0 17.1)"/><use xlink:href="#d" transform="matrix(1,0,0,1,936.1637237545876,-220.60879664719397) translate(0 17.1)"/><use xlink:href="#l" transform="matrix(1,0,0,1,805.3627085449143,-188.60879664719397) translate(0 17.1)"/><use xlink:href="#m" transform="matrix(1,0,0,1,936.1637237545876,-188.60879664719397) translate(0 17.1)"/><use xlink:href="#n" transform="matrix(1,0,0,1,805.3627085449143,-156.60879664719397) translate(0 17.1)"/><use xlink:href="#m" transform="matrix(1,0,0,1,936.1637237545876,-156.60879664719397) translate(0 17.1)"/><use xlink:href="#o" transform="matrix(1,0,0,1,805.3627085449143,-124.60879664719397) translate(0 17.1)"/><use xlink:href="#p" transform="matrix(1,0,0,1,936.1637237545876,-124.60879664719397) translate(0 17.1)"/><use xlink:href="#q" transform="matrix(1,0,0,1,805.3627085449143,-92.60879664719397) translate(0 17.1)"/><use xlink:href="#p" transform="matrix(1,0,0,1,936.1637237545876,-92.60879664719397) translate(0 17.1)"/><use xlink:href="#r" transform="matrix(1,0,0,1,805.3627085449143,-60.60879664719397) translate(0 17.1)"/><use xlink:href="#p" transform="matrix(1,0,0,1,936.1637237545876,-60.60879664719397) translate(0 17.1)"/><use xlink:href="#s" transform="matrix(1,0,0,1,805.3627085449143,-28.60879664719397) translate(0 17.1)"/><use xlink:href="#t" transform="matrix(1,0,0,1,936.1637237545876,-28.60879664719397) translate(0 17.1)"/><use xlink:href="#u" transform="matrix(1,0,0,1,805.3627085449143,3.3912033528060306) translate(0 17.1)"/><use xlink:href="#d" transform="matrix(1,0,0,1,936.1637237545876,3.3912033528060306) translate(0 17.1)"/><path d="M1216.73-454.8a8 8 0 0 1 8-8h304.74a8 8 0 0 1 8 8v152a8 8 0 0 1-8 8h-304.74a8 8 0 0 1-8-8z" fill="#fff"/><path d="M1216.73-422.8v-32a8 8 0 0 1 8-8h304.74a8 8 0 0 1 8 8v32" fill="#dedeff"/><path d="M1216.73-454.8a8 8 0 0 1 8-8h304.74a8 8 0 0 1 8 8v152a8 8 0 0 1-8 8h-304.74a8 8 0 0 1-8-8zM1216.73-422.8h320.74M1257.1-422.8v128M1387.9-422.8v128" stroke="#3a414a" fill="none"/><use xlink:href="#v" transform="matrix(1,0,0,1,1226.7327917530702,-462.7902517735961) translate(0 23.6)"/><use xlink:href="#b" transform="matrix(1,0,0,1,1221.7327917530702,-420.2902517735961) translate(0 17.1)"/><use xlink:href="#c" transform="matrix(1,0,0,1,1262.0955002979845,-420.2902517735961) translate(0 17.1)"/><use xlink:href="#d" transform="matrix(1,0,0,1,1392.8965155076578,-420.2902517735961) translate(0 17.1)"/><use xlink:href="#w" transform="matrix(1,0,0,1,1262.0955002979845,-388.2902517735961) translate(0 17.1)"/><use xlink:href="#d" transform="matrix(1,0,0,1,1392.8965155076578,-388.2902517735961) translate(0 17.1)"/><use xlink:href="#x" transform="matrix(1,0,0,1,1262.0955002979845,-356.2902517735961) translate(0 17.1)"/><use xlink:href="#d" transform="matrix(1,0,0,1,1392.8965155076578,-356.2902517735961) translate(0 17.1)"/><use xlink:href="#y" transform="matrix(1,0,0,1,1262.0955002979845,-324.2902517735961) translate(0 17.1)"/><use xlink:href="#z" transform="matrix(1,0,0,1,1392.8965155076578,-324.2902517735961) translate(0 17.1)"/><path d="M1200-192a8 8 0 0 1 8-8h304.74a8 8 0 0 1 8 8v77a8 8 0 0 1-8 8H1208a8 8 0 0 1-8-8z" fill="#fff"/><path d="M1200-160v-32a8 8 0 0 1 8-8h304.74a8 8 0 0 1 8 8v32" fill="#dedeff"/><path d="M1200-192a8 8 0 0 1 8-8h304.74a8 8 0 0 1 8 8v77a8 8 0 0 1-8 8H1208a8 8 0 0 1-8-8zM1200-160h320.74M1240.36-160v53M1371.16-160v53" stroke="#3a414a" fill="none"/><use xlink:href="#h" transform="matrix(1,0,0,1,1210,-200) translate(0 23.6)"/><use xlink:href="#b" transform="matrix(1,0,0,1,1205,-157.5) translate(0 27.6)"/><use xlink:href="#A" transform="matrix(1,0,0,1,1245.3627085449143,-157.5) translate(0 16.799999999999997)"/><use xlink:href="#B" transform="matrix(1,0,0,1,1245.3627085449143,-157.5) translate(0 38.4)"/><use xlink:href="#C" transform="matrix(1,0,0,1,1376.1637237545876,-157.5) translate(0 27.6)"/><path d="M1179.5-180.08h-27.13a12 12 0 0 1-12-12v-94.26a12 12 0 0 0-12-12h-27.72" stroke="#3a414a" fill="none"/><path d="M1179.5-190.08v20M1199.5-180.08h-20" stroke="#3a414a" fill="#fff"/><path d="M1081.46-308.34l20 10-20 10" stroke="#3a414a" fill="#fff" fill-opacity="0"/><path d="M1081.46-298.34h20" stroke="#3a414a" fill="#fff"/><path d="M1196.23-406.88h-35.5a12 12 0 0 0-12 12v47.33a12 12 0 0 1-12 12h-36.08" stroke="#3a414a" fill="none"/><path d="M1196.23-416.88v20M1216.23-406.88h-20" stroke="#3a414a" fill="#fff"/><path d="M1081.46-345.55l20 10-20 10" stroke="#3a414a" fill="#fff" fill-opacity="0"/><path d="M1081.46-335.55h20" stroke="#3a414a" fill="#fff"/><path d="M320-432a8 8 0 0 1 8-8h304.74a8 8 0 0 1 8 8v184a8 8 0 0 1-8 8H328a8 8 0 0 1-8-8z" fill="#fff"/><path d="M320-400v-32a8 8 0 0 1 8-8h304.74a8 8 0 0 1 8 8v32" fill="#dedeff"/><path d="M320-432a8 8 0 0 1 8-8h304.74a8 8 0 0 1 8 8v184a8 8 0 0 1-8 8H328a8 8 0 0 1-8-8zM320-400h320.74M360.36-400v160M508-400v160" stroke="#3a414a" fill="none"/><use xlink:href="#D" transform="matrix(1,0,0,1,330,-440) translate(0 23.6)"/><use xlink:href="#b" transform="matrix(1,0,0,1,325,-397.5) translate(0 17.1)"/><use xlink:href="#c" transform="matrix(1,0,0,1,365.3627085449143,-397.5) translate(0 17.1)"/><use xlink:href="#d" transform="matrix(1,0,0,1,513,-397.5) translate(0 17.1)"/><use xlink:href="#e" transform="matrix(1,0,0,1,325,-365.5) translate(0 17.1)"/><use xlink:href="#E" transform="matrix(1,0,0,1,365.3627085449143,-365.5) translate(0 17.1)"/><use xlink:href="#d" transform="matrix(1,0,0,1,513,-365.5) translate(0 17.1)"/><use xlink:href="#F" transform="matrix(1,0,0,1,365.3627085449143,-333.5) translate(0 17.1)"/><use xlink:href="#G" transform="matrix(1,0,0,1,513,-333.5) translate(0 17.1)"/><use xlink:href="#H" transform="matrix(1,0,0,1,365.3627085449143,-301.5) translate(0 17.1)"/><use xlink:href="#m" transform="matrix(1,0,0,1,513,-301.5) translate(0 17.1)"/><use xlink:href="#I" transform="matrix(1,0,0,1,365.3627085449143,-269.5) translate(0 17.1)"/><use xlink:href="#d" transform="matrix(1,0,0,1,513,-269.5) translate(0 17.1)"/><path d="M739.5-367.64h-31.3a7.82 7.82 0 0 0-7.83 7.82 7.82 7.82 0 0 1-7.82 7.82h-31.9" stroke="#3a414a" fill="none"/><path d="M739.5-377.64v20M759.5-367.64h-20" stroke="#3a414a" fill="#fff"/><path d="M641.47-362l20 10-20 10" stroke="#3a414a" fill="#fff" fill-opacity="0"/><path d="M641.47-352h20" stroke="#3a414a" fill="#fff"/><path d="M760-832a8 8 0 0 1 8-8h304.74a8 8 0 0 1 8 8v280a8 8 0 0 1-8 8H768a8 8 0 0 1-8-8z" fill="#fff"/><path d="M760-800v-32a8 8 0 0 1 8-8h304.74a8 8 0 0 1 8 8v32" fill="#dedeff"/><path d="M760-832a8 8 0 0 1 8-8h304.74a8 8 0 0 1 8 8v280a8 8 0 0 1-8 8H768a8 8 0 0 1-8-8zM760-800h320.74M800.36-800v256M931.16-800v256" stroke="#3a414a" fill="none"/><use xlink:href="#J" transform="matrix(1,0,0,1,770,-840) translate(0 23.6)"/><use xlink:href="#b" transform="matrix(1,0,0,1,765,-797.5) translate(0 17.1)"/><use xlink:href="#c" transform="matrix(1,0,0,1,805.3627085449143,-797.5) translate(0 17.1)"/><use xlink:href="#d" transform="matrix(1,0,0,1,936.1637237545876,-797.5) translate(0 17.1)"/><use xlink:href="#e" transform="matrix(1,0,0,1,765,-765.5) translate(0 17.1)"/><use xlink:href="#f" transform="matrix(1,0,0,1,805.3627085449143,-765.5) translate(0 17.1)"/><use xlink:href="#d" transform="matrix(1,0,0,1,936.1637237545876,-765.5) translate(0 17.1)"/><use xlink:href="#i" transform="matrix(1,0,0,1,805.3627085449143,-733.5) translate(0 17.1)"/><use xlink:href="#d" transform="matrix(1,0,0,1,936.1637237545876,-733.5) translate(0 17.1)"/><use xlink:href="#j" transform="matrix(1,0,0,1,805.3627085449143,-701.5) translate(0 17.1)"/><use xlink:href="#d" transform="matrix(1,0,0,1,936.1637237545876,-701.5) translate(0 17.1)"/><use xlink:href="#k" transform="matrix(1,0,0,1,805.3627085449143,-669.5) translate(0 17.1)"/><use xlink:href="#d" transform="matrix(1,0,0,1,936.1637237545876,-669.5) translate(0 17.1)"/><use xlink:href="#o" transform="matrix(1,0,0,1,805.3627085449143,-637.5) translate(0 17.1)"/><use xlink:href="#p" transform="matrix(1,0,0,1,936.1637237545876,-637.5) translate(0 17.1)"/><use xlink:href="#q" transform="matrix(1,0,0,1,805.3627085449143,-605.5) translate(0 17.1)"/><use xlink:href="#p" transform="matrix(1,0,0,1,936.1637237545876,-605.5) translate(0 17.1)"/><use xlink:href="#r" transform="matrix(1,0,0,1,805.3627085449143,-573.5) translate(0 17.1)"/><use xlink:href="#p" transform="matrix(1,0,0,1,936.1637237545876,-573.5) translate(0 17.1)"/><path d="M1196.23-406.88h-35.5a12 12 0 0 1-12-12v-321.3a12 12 0 0 0-12-12h-36.08" stroke="#3a414a" fill="none"/><path d="M1196.23-416.88v20M1216.23-406.88h-20" stroke="#3a414a" fill="#fff"/><path d="M1081.46-762.2l20 10-20 10" stroke="#3a414a" fill="#fff" fill-opacity="0"/><path d="M1081.46-752.2h20" stroke="#3a414a" fill="#fff"/><defs><path fill="#3a414a" d="M30-248c87 1 191-15 191 75 0 78-77 80-158 76V0H30v-248zm33 125c57 0 124 11 124-50 0-59-68-47-124-48v98" id="K"/><path fill="#3a414a" d="M100-194c62-1 85 37 85 99 1 63-27 99-86 99S16-35 15-95c0-66 28-99 85-99zM99-20c44 1 53-31 53-75 0-43-8-75-51-75s-53 32-53 75 10 74 51 75" id="L"/><path fill="#3a414a" d="M24 0v-261h32V0H24" id="M"/><path fill="#3a414a" d="M24-231v-30h32v30H24zM24 0v-190h32V0H24" id="N"/><path fill="#3a414a" d="M96-169c-40 0-48 33-48 73s9 75 48 75c24 0 41-14 43-38l32 2c-6 37-31 61-74 61-59 0-76-41-82-99-10-93 101-131 147-64 4 7 5 14 7 22l-32 3c-4-21-16-35-41-35" id="O"/><path fill="#3a414a" d="M179-190L93 31C79 59 56 82 12 73V49c39 6 53-20 64-50L1-190h34L92-34l54-156h33" id="P"/><path fill="#3a414a" d="M30-248c118-7 216 8 213 122C240-48 200 0 122 0H30v-248zM63-27c89 8 146-16 146-99s-60-101-146-95v194" id="Q"/><path fill="#3a414a" d="M84 4C-5 8 30-112 23-190h32v120c0 31 7 50 39 49 72-2 45-101 50-169h31l1 190h-30c-1-10 1-25-2-33-11 22-28 36-60 37" id="R"/><path fill="#3a414a" d="M210-169c-67 3-38 105-44 169h-31v-121c0-29-5-50-35-48C34-165 62-65 56 0H25l-1-190h30c1 10-1 24 2 32 10-44 99-50 107 0 11-21 27-35 58-36 85-2 47 119 55 194h-31v-121c0-29-5-49-35-48" id="S"/><path fill="#3a414a" d="M100-194c63 0 86 42 84 106H49c0 40 14 67 53 68 26 1 43-12 49-29l28 8c-11 28-37 45-77 45C44 4 14-33 15-96c1-61 26-98 85-98zm52 81c6-60-76-77-97-28-3 7-6 17-6 28h103" id="T"/><path fill="#3a414a" d="M117-194c89-4 53 116 60 194h-32v-121c0-31-8-49-39-48C34-167 62-67 57 0H25l-1-190h30c1 10-1 24 2 32 11-22 29-35 61-36" id="U"/><path fill="#3a414a" d="M59-47c-2 24 18 29 38 22v24C64 9 27 4 27-40v-127H5v-23h24l9-43h21v43h35v23H59v120" id="V"/><g id="a"><use transform="matrix(0.05,0,0,0.05,0,0)" xlink:href="#K"/><use transform="matrix(0.05,0,0,0.05,12,0)" xlink:href="#L"/><use transform="matrix(0.05,0,0,0.05,22,0)" xlink:href="#M"/><use transform="matrix(0.05,0,0,0.05,25.950000000000003,0)" xlink:href="#N"/><use transform="matrix(0.05,0,0,0.05,29.899999999999995,0)" xlink:href="#O"/><use transform="matrix(0.05,0,0,0.05,38.9,0)" xlink:href="#P"/><use transform="matrix(0.05,0,0,0.05,47.9,0)" xlink:href="#Q"/><use transform="matrix(0.05,0,0,0.05,60.85,0)" xlink:href="#L"/><use transform="matrix(0.05,0,0,0.05,70.85,0)" xlink:href="#O"/><use transform="matrix(0.05,0,0,0.05,79.85,0)" xlink:href="#R"/><use transform="matrix(0.05,0,0,0.05,89.85,0)" xlink:href="#S"/><use transform="matrix(0.05,0,0,0.05,104.80000000000001,0)" xlink:href="#T"/><use transform="matrix(0.05,0,0,0.05,114.80000000000001,0)" xlink:href="#U"/><use transform="matrix(0.05,0,0,0.05,124.80000000000001,0)" xlink:href="#V"/></g><path fill="#3a414a" d="M194 0L95-120 63-95V0H30v-248h33v124l119-124h40L117-140 236 0h-42" id="W"/><g id="b"><use transform="matrix(0.05,0,0,0.05,0,0)" xlink:href="#K"/><use transform="matrix(0.05,0,0,0.05,12,0)" xlink:href="#W"/></g><path fill="#3a414a" d="M85-194c31 0 48 13 60 33l-1-100h32l1 261h-30c-2-10 0-23-3-31C134-8 116 4 85 4 32 4 16-35 15-94c0-66 23-100 70-100zm9 24c-40 0-46 34-46 75 0 40 6 74 45 74 42 0 51-32 51-76 0-42-9-74-50-73" id="X"/><g id="c"><use transform="matrix(0.05,0,0,0.05,0,0)" xlink:href="#N"/><use transform="matrix(0.05,0,0,0.05,3.95,0)" xlink:href="#X"/></g><path fill="#3a414a" d="M185-189c-5-48-123-54-124 2 14 75 158 14 163 119 3 78-121 87-175 55-17-10-28-26-33-46l33-7c5 56 141 63 141-1 0-78-155-14-162-118-5-82 145-84 179-34 5 7 8 16 11 25" id="Y"/><path fill="#3a414a" d="M114-163C36-179 61-72 57 0H25l-1-190h30c1 12-1 29 2 39 6-27 23-49 58-41v29" id="Z"/><path fill="#3a414a" d="M177-190C167-65 218 103 67 71c-23-6-38-20-44-43l32-5c15 47 100 32 89-28v-30C133-14 115 1 83 1 29 1 15-40 15-95c0-56 16-97 71-98 29-1 48 16 59 35 1-10 0-23 2-32h30zM94-22c36 0 50-32 50-73 0-42-14-75-50-75-39 0-46 34-46 75s6 73 46 73" id="aa"/><g id="d"><use transform="matrix(0.05,0,0,0.05,0,0)" xlink:href="#Y"/><use transform="matrix(0.05,0,0,0.05,12,0)" xlink:href="#V"/><use transform="matrix(0.05,0,0,0.05,17,0)" xlink:href="#Z"/><use transform="matrix(0.05,0,0,0.05,22.95,0)" xlink:href="#N"/><use transform="matrix(0.05,0,0,0.05,26.899999999999995,0)" xlink:href="#U"/><use transform="matrix(0.05,0,0,0.05,36.9,0)" xlink:href="#aa"/></g><path fill="#3a414a" d="M63-220v92h138v28H63V0H30v-248h175v28H63" id="ab"/><g id="e"><use transform="matrix(0.05,0,0,0.05,0,0)" xlink:href="#ab"/><use transform="matrix(0.05,0,0,0.05,10.950000000000001,0)" xlink:href="#W"/></g><path fill="#3a414a" d="M135-143c-3-34-86-38-87 0 15 53 115 12 119 90S17 21 10-45l28-5c4 36 97 45 98 0-10-56-113-15-118-90-4-57 82-63 122-42 12 7 21 19 24 35" id="ac"/><path fill="#3a414a" d="M33 0v-248h34V0H33" id="ad"/><g id="f"><use transform="matrix(0.05,0,0,0.05,0,0)" xlink:href="#R"/><use transform="matrix(0.05,0,0,0.05,10,0)" xlink:href="#ac"/><use transform="matrix(0.05,0,0,0.05,19,0)" xlink:href="#T"/><use transform="matrix(0.05,0,0,0.05,29,0)" xlink:href="#Z"/><use transform="matrix(0.05,0,0,0.05,34.95,0)" xlink:href="#ad"/><use transform="matrix(0.05,0,0,0.05,39.95,0)" xlink:href="#X"/></g><path fill="#3a414a" d="M141-36C126-15 110 5 73 4 37 3 15-17 15-53c-1-64 63-63 125-63 3-35-9-54-41-54-24 1-41 7-42 31l-33-3c5-37 33-52 76-52 45 0 72 20 72 64v82c-1 20 7 32 28 27v20c-31 9-61-2-59-35zM48-53c0 20 12 33 32 33 41-3 63-29 60-74-43 2-92-5-92 41" id="ae"/><g id="g"><use transform="matrix(0.05,0,0,0.05,0,0)" xlink:href="#ac"/><use transform="matrix(0.05,0,0,0.05,9,0)" xlink:href="#V"/><use transform="matrix(0.05,0,0,0.05,14,0)" xlink:href="#ae"/><use transform="matrix(0.05,0,0,0.05,24,0)" xlink:href="#V"/><use transform="matrix(0.05,0,0,0.05,29,0)" xlink:href="#R"/><use transform="matrix(0.05,0,0,0.05,39,0)" xlink:href="#ac"/></g><g id="h"><use transform="matrix(0.05,0,0,0.05,0,0)" xlink:href="#Q"/><use transform="matrix(0.05,0,0,0.05,12.950000000000001,0)" xlink:href="#L"/><use transform="matrix(0.05,0,0,0.05,22.950000000000003,0)" xlink:href="#O"/><use transform="matrix(0.05,0,0,0.05,31.950000000000003,0)" xlink:href="#R"/><use transform="matrix(0.05,0,0,0.05,41.95,0)" xlink:href="#S"/><use transform="matrix(0.05,0,0,0.05,56.900000000000006,0)" xlink:href="#T"/><use transform="matrix(0.05,0,0,0.05,66.9,0)" xlink:href="#U"/><use transform="matrix(0.05,0,0,0.05,76.9,0)" xlink:href="#V"/><use transform="matrix(0.05,0,0,0.05,81.9,0)" xlink:href="#Y"/><use transform="matrix(0.05,0,0,0.05,93.9,0)" xlink:href="#V"/><use transform="matrix(0.05,0,0,0.05,98.9,0)" xlink:href="#ae"/><use transform="matrix(0.05,0,0,0.05,108.9,0)" xlink:href="#V"/><use transform="matrix(0.05,0,0,0.05,113.9,0)" xlink:href="#R"/><use transform="matrix(0.05,0,0,0.05,123.9,0)" xlink:href="#ac"/></g><g id="i"><use transform="matrix(0.05,0,0,0.05,0,0)" xlink:href="#V"/><use transform="matrix(0.05,0,0,0.05,5,0)" xlink:href="#N"/><use transform="matrix(0.05,0,0,0.05,8.95,0)" xlink:href="#V"/><use transform="matrix(0.05,0,0,0.05,13.949999999999998,0)" xlink:href="#M"/><use transform="matrix(0.05,0,0,0.05,17.9,0)" xlink:href="#T"/></g><path fill="#3a414a" d="M115-194c55 1 70 41 70 98S169 2 115 4C84 4 66-9 55-30l1 105H24l-1-265h31l2 30c10-21 28-34 59-34zm-8 174c40 0 45-34 45-75s-6-73-45-74c-42 0-51 32-51 76 0 43 10 73 51 73" id="af"/><g id="j"><use transform="matrix(0.05,0,0,0.05,0,0)" xlink:href="#X"/><use transform="matrix(0.05,0,0,0.05,10,0)" xlink:href="#T"/><use transform="matrix(0.05,0,0,0.05,20,0)" xlink:href="#ac"/><use transform="matrix(0.05,0,0,0.05,29,0)" xlink:href="#O"/><use transform="matrix(0.05,0,0,0.05,38,0)" xlink:href="#Z"/><use transform="matrix(0.05,0,0,0.05,43.95,0)" xlink:href="#N"/><use transform="matrix(0.05,0,0,0.05,47.900000000000006,0)" xlink:href="#af"/><use transform="matrix(0.05,0,0,0.05,57.900000000000006,0)" xlink:href="#V"/><use transform="matrix(0.05,0,0,0.05,62.900000000000006,0)" xlink:href="#N"/><use transform="matrix(0.05,0,0,0.05,66.85000000000001,0)" xlink:href="#L"/><use transform="matrix(0.05,0,0,0.05,76.85000000000001,0)" xlink:href="#U"/></g><g id="k"><use transform="matrix(0.05,0,0,0.05,0,0)" xlink:href="#R"/><use transform="matrix(0.05,0,0,0.05,10,0)" xlink:href="#Z"/><use transform="matrix(0.05,0,0,0.05,15.949999999999998,0)" xlink:href="#M"/></g><g id="l"><use transform="matrix(0.05,0,0,0.05,0,0)" xlink:href="#O"/><use transform="matrix(0.05,0,0,0.05,9,0)" xlink:href="#Z"/><use transform="matrix(0.05,0,0,0.05,14.949999999999998,0)" xlink:href="#T"/><use transform="matrix(0.05,0,0,0.05,24.95,0)" xlink:href="#ae"/><use transform="matrix(0.05,0,0,0.05,34.95,0)" xlink:href="#V"/><use transform="matrix(0.05,0,0,0.05,39.95,0)" xlink:href="#N"/><use transform="matrix(0.05,0,0,0.05,43.900000000000006,0)" xlink:href="#L"/><use transform="matrix(0.05,0,0,0.05,53.900000000000006,0)" xlink:href="#U"/><use transform="matrix(0.05,0,0,0.05,63.900000000000006,0)" xlink:href="#Q"/><use transform="matrix(0.05,0,0,0.05,76.85000000000001,0)" xlink:href="#ae"/><use transform="matrix(0.05,0,0,0.05,86.85000000000001,0)" xlink:href="#V"/><use transform="matrix(0.05,0,0,0.05,91.85000000000001,0)" xlink:href="#T"/></g><g id="m"><use transform="matrix(0.05,0,0,0.05,0,0)" xlink:href="#Q"/><use transform="matrix(0.05,0,0,0.05,12.950000000000001,0)" xlink:href="#ae"/><use transform="matrix(0.05,0,0,0.05,22.950000000000003,0)" xlink:href="#V"/><use transform="matrix(0.05,0,0,0.05,27.950000000000003,0)" xlink:href="#T"/></g><g id="n"><use transform="matrix(0.05,0,0,0.05,0,0)" xlink:href="#R"/><use transform="matrix(0.05,0,0,0.05,10,0)" xlink:href="#af"/><use transform="matrix(0.05,0,0,0.05,20,0)" xlink:href="#X"/><use transform="matrix(0.05,0,0,0.05,30,0)" xlink:href="#ae"/><use transform="matrix(0.05,0,0,0.05,40,0)" xlink:href="#V"/><use transform="matrix(0.05,0,0,0.05,45,0)" xlink:href="#T"/><use transform="matrix(0.05,0,0,0.05,55,0)" xlink:href="#Q"/><use transform="matrix(0.05,0,0,0.05,67.95,0)" xlink:href="#ae"/><use transform="matrix(0.05,0,0,0.05,77.95,0)" xlink:href="#V"/><use transform="matrix(0.05,0,0,0.05,82.95,0)" xlink:href="#T"/></g><path fill="#3a414a" d="M141 0L90-78 38 0H4l68-98-65-92h35l48 74 47-74h35l-64 92 68 98h-35" id="ag"/><g id="o"><use transform="matrix(0.05,0,0,0.05,0,0)" xlink:href="#ag"/><use transform="matrix(0.05,0,0,0.05,9,0)" xlink:href="#Y"/><use transform="matrix(0.05,0,0,0.05,21,0)" xlink:href="#N"/><use transform="matrix(0.05,0,0,0.05,24.95,0)" xlink:href="#aa"/><use transform="matrix(0.05,0,0,0.05,34.95,0)" xlink:href="#U"/><use transform="matrix(0.05,0,0,0.05,44.95,0)" xlink:href="#ae"/><use transform="matrix(0.05,0,0,0.05,54.95,0)" xlink:href="#V"/><use transform="matrix(0.05,0,0,0.05,59.95,0)" xlink:href="#R"/><use transform="matrix(0.05,0,0,0.05,69.95,0)" xlink:href="#Z"/><use transform="matrix(0.05,0,0,0.05,75.9,0)" xlink:href="#T"/></g><path fill="#3a414a" d="M101-234c-31-9-42 10-38 44h38v23H63V0H32v-167H5v-23h27c-7-52 17-82 69-68v24" id="ah"/><g id="p"><use transform="matrix(0.05,0,0,0.05,0,0)" xlink:href="#ah"/><use transform="matrix(0.05,0,0,0.05,5,0)" xlink:href="#M"/><use transform="matrix(0.05,0,0,0.05,8.95,0)" xlink:href="#L"/><use transform="matrix(0.05,0,0,0.05,18.95,0)" xlink:href="#ae"/><use transform="matrix(0.05,0,0,0.05,28.950000000000003,0)" xlink:href="#V"/></g><g id="q"><use transform="matrix(0.05,0,0,0.05,0,0)" xlink:href="#P"/><use transform="matrix(0.05,0,0,0.05,9,0)" xlink:href="#Y"/><use transform="matrix(0.05,0,0,0.05,21,0)" xlink:href="#N"/><use transform="matrix(0.05,0,0,0.05,24.95,0)" xlink:href="#aa"/><use transform="matrix(0.05,0,0,0.05,34.95,0)" xlink:href="#U"/><use transform="matrix(0.05,0,0,0.05,44.95,0)" xlink:href="#ae"/><use transform="matrix(0.05,0,0,0.05,54.95,0)" xlink:href="#V"/><use transform="matrix(0.05,0,0,0.05,59.95,0)" xlink:href="#R"/><use transform="matrix(0.05,0,0,0.05,69.95,0)" xlink:href="#Z"/><use transform="matrix(0.05,0,0,0.05,75.9,0)" xlink:href="#T"/></g><path fill="#3a414a" d="M266 0h-40l-56-210L115 0H75L2-248h35L96-30l15-64 43-154h32l59 218 59-218h35" id="ai"/><path fill="#3a414a" d="M106-169C34-169 62-67 57 0H25v-261h32l-1 103c12-21 28-36 61-36 89 0 53 116 60 194h-32v-121c2-32-8-49-39-48" id="aj"/><g id="r"><use transform="matrix(0.05,0,0,0.05,0,0)" xlink:href="#ac"/><use transform="matrix(0.05,0,0,0.05,9,0)" xlink:href="#N"/><use transform="matrix(0.05,0,0,0.05,12.949999999999998,0)" xlink:href="#aa"/><use transform="matrix(0.05,0,0,0.05,22.95,0)" xlink:href="#U"/><use transform="matrix(0.05,0,0,0.05,32.95,0)" xlink:href="#ae"/><use transform="matrix(0.05,0,0,0.05,42.95,0)" xlink:href="#V"/><use transform="matrix(0.05,0,0,0.05,47.95,0)" xlink:href="#R"/><use transform="matrix(0.05,0,0,0.05,57.95,0)" xlink:href="#Z"/><use transform="matrix(0.05,0,0,0.05,63.900000000000006,0)" xlink:href="#T"/><use transform="matrix(0.05,0,0,0.05,73.9,0)" xlink:href="#ai"/><use transform="matrix(0.05,0,0,0.05,90.85000000000001,0)" xlink:href="#N"/><use transform="matrix(0.05,0,0,0.05,94.80000000000001,0)" xlink:href="#X"/><use transform="matrix(0.05,0,0,0.05,104.80000000000001,0)" xlink:href="#V"/><use transform="matrix(0.05,0,0,0.05,109.80000000000001,0)" xlink:href="#aj"/></g><g id="s"><use transform="matrix(0.05,0,0,0.05,0,0)" xlink:href="#ac"/><use transform="matrix(0.05,0,0,0.05,9,0)" xlink:href="#N"/><use transform="matrix(0.05,0,0,0.05,12.949999999999998,0)" xlink:href="#aa"/><use transform="matrix(0.05,0,0,0.05,22.95,0)" xlink:href="#U"/><use transform="matrix(0.05,0,0,0.05,32.95,0)" xlink:href="#ae"/><use transform="matrix(0.05,0,0,0.05,42.95,0)" xlink:href="#V"/><use transform="matrix(0.05,0,0,0.05,47.95,0)" xlink:href="#R"/><use transform="matrix(0.05,0,0,0.05,57.95,0)" xlink:href="#Z"/><use transform="matrix(0.05,0,0,0.05,63.900000000000006,0)" xlink:href="#T"/><use transform="matrix(0.05,0,0,0.05,73.9,0)" xlink:href="#K"/><use transform="matrix(0.05,0,0,0.05,85.9,0)" xlink:href="#ae"/><use transform="matrix(0.05,0,0,0.05,95.9,0)" xlink:href="#aa"/><use transform="matrix(0.05,0,0,0.05,105.9,0)" xlink:href="#T"/></g><g id="t"><use transform="matrix(0.05,0,0,0.05,0,0)" xlink:href="#N"/><use transform="matrix(0.05,0,0,0.05,3.95,0)" xlink:href="#U"/><use transform="matrix(0.05,0,0,0.05,13.949999999999998,0)" xlink:href="#V"/></g><path fill="#3a414a" d="M160-131c35 5 61 23 61 61C221 17 115-2 30 0v-248c76 3 177-17 177 60 0 33-19 50-47 57zm-97-11c50-1 110 9 110-42 0-47-63-36-110-37v79zm0 115c55-2 124 14 124-45 0-56-70-42-124-44v89" id="ak"/><path fill="#3a414a" d="M30 0v-248h187v28H63v79h144v27H63v87h162V0H30" id="al"/><g id="u"><use transform="matrix(0.05,0,0,0.05,0,0)" xlink:href="#ac"/><use transform="matrix(0.05,0,0,0.05,9,0)" xlink:href="#N"/><use transform="matrix(0.05,0,0,0.05,12.949999999999998,0)" xlink:href="#aa"/><use transform="matrix(0.05,0,0,0.05,22.95,0)" xlink:href="#U"/><use transform="matrix(0.05,0,0,0.05,32.95,0)" xlink:href="#T"/><use transform="matrix(0.05,0,0,0.05,42.95,0)" xlink:href="#X"/><use transform="matrix(0.05,0,0,0.05,52.95,0)" xlink:href="#ak"/><use transform="matrix(0.05,0,0,0.05,64.95,0)" xlink:href="#P"/><use transform="matrix(0.05,0,0,0.05,73.95,0)" xlink:href="#al"/><use transform="matrix(0.05,0,0,0.05,85.95,0)" xlink:href="#S"/><use transform="matrix(0.05,0,0,0.05,100.9,0)" xlink:href="#ae"/><use transform="matrix(0.05,0,0,0.05,110.9,0)" xlink:href="#N"/><use transform="matrix(0.05,0,0,0.05,114.85000000000001,0)" xlink:href="#M"/></g><path fill="#3a414a" d="M232-93c-1 65-40 97-104 97C67 4 28-28 28-90v-158h33c8 89-33 224 67 224 102 0 64-133 71-224h33v155" id="am"/><g id="v"><use transform="matrix(0.05,0,0,0.05,0,0)" xlink:href="#am"/><use transform="matrix(0.05,0,0,0.05,12.950000000000001,0)" xlink:href="#ac"/><use transform="matrix(0.05,0,0,0.05,21.950000000000003,0)" xlink:href="#T"/><use transform="matrix(0.05,0,0,0.05,31.950000000000003,0)" xlink:href="#Z"/></g><g id="w"><use transform="matrix(0.05,0,0,0.05,0,0)" xlink:href="#R"/><use transform="matrix(0.05,0,0,0.05,10,0)" xlink:href="#ac"/><use transform="matrix(0.05,0,0,0.05,19,0)" xlink:href="#T"/><use transform="matrix(0.05,0,0,0.05,29,0)" xlink:href="#Z"/><use transform="matrix(0.05,0,0,0.05,34.95,0)" xlink:href="#U"/><use transform="matrix(0.05,0,0,0.05,44.95,0)" xlink:href="#ae"/><use transform="matrix(0.05,0,0,0.05,54.95,0)" xlink:href="#S"/><use transform="matrix(0.05,0,0,0.05,69.9,0)" xlink:href="#T"/></g><g id="x"><use transform="matrix(0.05,0,0,0.05,0,0)" xlink:href="#T"/><use transform="matrix(0.05,0,0,0.05,10,0)" xlink:href="#S"/><use transform="matrix(0.05,0,0,0.05,24.950000000000003,0)" xlink:href="#ae"/><use transform="matrix(0.05,0,0,0.05,34.95,0)" xlink:href="#N"/><use transform="matrix(0.05,0,0,0.05,38.900000000000006,0)" xlink:href="#M"/></g><g id="y"><use transform="matrix(0.05,0,0,0.05,0,0)" xlink:href="#Z"/><use transform="matrix(0.05,0,0,0.05,5.95,0)" xlink:href="#L"/><use transform="matrix(0.05,0,0,0.05,15.949999999999998,0)" xlink:href="#M"/><use transform="matrix(0.05,0,0,0.05,19.9,0)" xlink:href="#T"/><use transform="matrix(0.05,0,0,0.05,29.899999999999995,0)" xlink:href="#ac"/></g><path fill="#3a414a" d="M30 0v-248h33v221h125V0H30" id="an"/><path fill="#3a414a" d="M18-100v-36l175-74v27L42-118l151 64v27" id="ao"/><path fill="#3a414a" d="M18-27v-27l151-64-151-65v-27l175 74v36" id="ap"/><g id="z"><use transform="matrix(0.05,0,0,0.05,0,0)" xlink:href="#an"/><use transform="matrix(0.05,0,0,0.05,10,0)" xlink:href="#N"/><use transform="matrix(0.05,0,0,0.05,13.949999999999998,0)" xlink:href="#ac"/><use transform="matrix(0.05,0,0,0.05,22.95,0)" xlink:href="#V"/><use transform="matrix(0.05,0,0,0.05,27.950000000000003,0)" xlink:href="#ao"/><use transform="matrix(0.05,0,0,0.05,38.45,0)" xlink:href="#Y"/><use transform="matrix(0.05,0,0,0.05,50.45,0)" xlink:href="#V"/><use transform="matrix(0.05,0,0,0.05,55.45,0)" xlink:href="#Z"/><use transform="matrix(0.05,0,0,0.05,61.400000000000006,0)" xlink:href="#N"/><use transform="matrix(0.05,0,0,0.05,65.35000000000001,0)" xlink:href="#U"/><use transform="matrix(0.05,0,0,0.05,75.35000000000001,0)" xlink:href="#aa"/><use transform="matrix(0.05,0,0,0.05,85.35000000000001,0)" xlink:href="#ap"/></g><path fill="#3a414a" d="M190 0L58-211 59 0H30v-248h39L202-35l-2-213h31V0h-41" id="aq"/><path fill="#3a414a" d="M143 4C61 4 22-44 18-125c-5-107 100-154 193-111 17 8 29 25 37 43l-32 9c-13-25-37-40-76-40-61 0-88 39-88 99 0 61 29 100 91 101 35 0 62-11 79-27v-45h-74v-28h105v86C228-13 192 4 143 4" id="ar"/><path fill="#3a414a" d="M68-38c1 34 0 65-14 84H32c9-13 17-26 17-46H33v-38h35" id="as"/><g id="A"><use transform="matrix(0.05,0,0,0.05,0,0)" xlink:href="#K"/><use transform="matrix(0.05,0,0,0.05,12,0)" xlink:href="#al"/><use transform="matrix(0.05,0,0,0.05,24,0)" xlink:href="#aq"/><use transform="matrix(0.05,0,0,0.05,36.95,0)" xlink:href="#Q"/><use transform="matrix(0.05,0,0,0.05,49.900000000000006,0)" xlink:href="#ad"/><use transform="matrix(0.05,0,0,0.05,54.900000000000006,0)" xlink:href="#aq"/><use transform="matrix(0.05,0,0,0.05,67.85000000000001,0)" xlink:href="#ar"/><use transform="matrix(0.05,0,0,0.05,81.85000000000001,0)" xlink:href="#as"/></g><g id="B"><use transform="matrix(0.05,0,0,0.05,0,0)" xlink:href="#Y"/><use transform="matrix(0.05,0,0,0.05,12,0)" xlink:href="#ad"/><use transform="matrix(0.05,0,0,0.05,17,0)" xlink:href="#ar"/><use transform="matrix(0.05,0,0,0.05,31,0)" xlink:href="#aq"/><use transform="matrix(0.05,0,0,0.05,43.95,0)" xlink:href="#al"/><use transform="matrix(0.05,0,0,0.05,55.95,0)" xlink:href="#Q"/></g><g id="C"><use transform="matrix(0.05,0,0,0.05,0,0)" xlink:href="#al"/><use transform="matrix(0.05,0,0,0.05,12,0)" xlink:href="#U"/><use transform="matrix(0.05,0,0,0.05,22,0)" xlink:href="#R"/><use transform="matrix(0.05,0,0,0.05,32,0)" xlink:href="#S"/></g><g id="D"><use transform="matrix(0.05,0,0,0.05,0,0)" xlink:href="#Y"/><use transform="matrix(0.05,0,0,0.05,12,0)" xlink:href="#N"/><use transform="matrix(0.05,0,0,0.05,15.949999999999998,0)" xlink:href="#aa"/><use transform="matrix(0.05,0,0,0.05,25.950000000000003,0)" xlink:href="#U"/><use transform="matrix(0.05,0,0,0.05,35.95,0)" xlink:href="#ae"/><use transform="matrix(0.05,0,0,0.05,45.95,0)" xlink:href="#V"/><use transform="matrix(0.05,0,0,0.05,50.95,0)" xlink:href="#L"/><use transform="matrix(0.05,0,0,0.05,60.95,0)" xlink:href="#Z"/><use transform="matrix(0.05,0,0,0.05,66.9,0)" xlink:href="#P"/></g><g id="E"><use transform="matrix(0.05,0,0,0.05,0,0)" xlink:href="#X"/><use transform="matrix(0.05,0,0,0.05,10,0)" xlink:href="#L"/><use transform="matrix(0.05,0,0,0.05,20,0)" xlink:href="#O"/><use transform="matrix(0.05,0,0,0.05,29,0)" xlink:href="#R"/><use transform="matrix(0.05,0,0,0.05,39,0)" xlink:href="#S"/><use transform="matrix(0.05,0,0,0.05,53.95,0)" xlink:href="#T"/><use transform="matrix(0.05,0,0,0.05,63.95,0)" xlink:href="#U"/><use transform="matrix(0.05,0,0,0.05,73.95,0)" xlink:href="#V"/><use transform="matrix(0.05,0,0,0.05,78.95,0)" xlink:href="#ad"/><use transform="matrix(0.05,0,0,0.05,83.95,0)" xlink:href="#X"/></g><g id="F"><use transform="matrix(0.05,0,0,0.05,0,0)" xlink:href="#ac"/><use transform="matrix(0.05,0,0,0.05,9,0)" xlink:href="#N"/><use transform="matrix(0.05,0,0,0.05,12.949999999999998,0)" xlink:href="#aa"/><use transform="matrix(0.05,0,0,0.05,22.95,0)" xlink:href="#U"/><use transform="matrix(0.05,0,0,0.05,32.95,0)" xlink:href="#T"/><use transform="matrix(0.05,0,0,0.05,42.95,0)" xlink:href="#X"/></g><path fill="#3a414a" d="M115-194c53 0 69 39 70 98 0 66-23 100-70 100C84 3 66-7 56-30L54 0H23l1-261h32v101c10-23 28-34 59-34zm-8 174c40 0 45-34 45-75 0-40-5-75-45-74-42 0-51 32-51 76 0 43 10 73 51 73" id="at"/><g id="G"><use transform="matrix(0.05,0,0,0.05,0,0)" xlink:href="#at"/><use transform="matrix(0.05,0,0,0.05,10,0)" xlink:href="#L"/><use transform="matrix(0.05,0,0,0.05,20,0)" xlink:href="#L"/><use transform="matrix(0.05,0,0,0.05,30,0)" xlink:href="#M"/><use transform="matrix(0.05,0,0,0.05,33.95,0)" xlink:href="#T"/><use transform="matrix(0.05,0,0,0.05,43.95,0)" xlink:href="#ae"/><use transform="matrix(0.05,0,0,0.05,53.95,0)" xlink:href="#U"/></g><g id="H"><use transform="matrix(0.05,0,0,0.05,0,0)" xlink:href="#ac"/><use transform="matrix(0.05,0,0,0.05,9,0)" xlink:href="#N"/><use transform="matrix(0.05,0,0,0.05,12.949999999999998,0)" xlink:href="#aa"/><use transform="matrix(0.05,0,0,0.05,22.95,0)" xlink:href="#U"/><use transform="matrix(0.05,0,0,0.05,32.95,0)" xlink:href="#Q"/><use transform="matrix(0.05,0,0,0.05,45.900000000000006,0)" xlink:href="#ae"/><use transform="matrix(0.05,0,0,0.05,55.900000000000006,0)" xlink:href="#V"/><use transform="matrix(0.05,0,0,0.05,60.900000000000006,0)" xlink:href="#T"/></g><g id="I"><use transform="matrix(0.05,0,0,0.05,0,0)" xlink:href="#ac"/><use transform="matrix(0.05,0,0,0.05,9,0)" xlink:href="#N"/><use transform="matrix(0.05,0,0,0.05,12.949999999999998,0)" xlink:href="#aa"/><use transform="matrix(0.05,0,0,0.05,22.95,0)" xlink:href="#U"/><use transform="matrix(0.05,0,0,0.05,32.95,0)" xlink:href="#ae"/><use transform="matrix(0.05,0,0,0.05,42.95,0)" xlink:href="#V"/><use transform="matrix(0.05,0,0,0.05,47.95,0)" xlink:href="#R"/><use transform="matrix(0.05,0,0,0.05,57.95,0)" xlink:href="#Z"/><use transform="matrix(0.05,0,0,0.05,63.900000000000006,0)" xlink:href="#T"/><use transform="matrix(0.05,0,0,0.05,73.9,0)" xlink:href="#Q"/><use transform="matrix(0.05,0,0,0.05,86.85000000000001,0)" xlink:href="#ae"/><use transform="matrix(0.05,0,0,0.05,96.85000000000001,0)" xlink:href="#V"/><use transform="matrix(0.05,0,0,0.05,101.85000000000001,0)" xlink:href="#ae"/><use transform="matrix(0.05,0,0,0.05,111.85000000000001,0)" xlink:href="#am"/><use transform="matrix(0.05,0,0,0.05,124.80000000000001,0)" xlink:href="#Z"/><use transform="matrix(0.05,0,0,0.05,130.75,0)" xlink:href="#M"/></g><path fill="#3a414a" d="M127-220V0H93v-220H8v-28h204v28h-85" id="au"/><g id="J"><use transform="matrix(0.05,0,0,0.05,0,0)" xlink:href="#au"/><use transform="matrix(0.05,0,0,0.05,8.950000000000001,0)" xlink:href="#T"/><use transform="matrix(0.05,0,0,0.05,18.950000000000003,0)" xlink:href="#S"/><use transform="matrix(0.05,0,0,0.05,33.900000000000006,0)" xlink:href="#af"/><use transform="matrix(0.05,0,0,0.05,43.900000000000006,0)" xlink:href="#M"/><use transform="matrix(0.05,0,0,0.05,47.85000000000001,0)" xlink:href="#ae"/><use transform="matrix(0.05,0,0,0.05,57.85,0)" xlink:href="#V"/><use transform="matrix(0.05,0,0,0.05,62.85,0)" xlink:href="#T"/></g></defs></g></svg>